<svg xmlns="http://www.w3.org/2000/svg" width="32" height="32" viewBox="0 0 32 32">
  <path d="M6 11.5C6 10.67 6.67 10 7.5 10h17c.83 0 1.5.67 1.5 1.5v13c0 .83-.67 1.5-1.5 1.5h-17C6.67 26 6 25.33 6 24.5v-13z" fill="#0a84ff" opacity="0.2" stroke="#0a84ff" stroke-width="1.2"/>
  <path d="M10 10 L8 6.5M22 10 L24 6.5" stroke="#00e5cc" stroke-width="1.5" stroke-linecap="round"/>
  <circle cx="11" cy="6" r="1" fill="#00e5cc"/>
  <circle cx="21" cy="6" r="1" fill="#00e5cc"/>
  <rect x="10" y="13" width="5" height="3" rx="1" fill="#0a84ff"/>
  <rect x="17" y="13" width="5" height="3" rx="1" fill="#0a84ff"/>
  <rect x="10" y="18" width="5" height="3" rx="1" fill="#0a84ff"/>
  <rect x="17" y="18" width="5" height="3" rx="1" fill="#0a84ff"/>
  <rect x="14" y="25" width="4" height="3" rx="1.5" fill="#0a84ff"/>
</svg>
